<svg width="123" height="121" viewBox="0 0 123 121" fill="none" xmlns="http://www.w3.org/2000/svg">
<g clip-path="url(#clip0_22_63)" filter="url(#filter0_d_22_63)">
<path d="M106.357 45.1087H78.8478V17.6C78.8478 10.9087 73.1478 5.45654 66.4566 5.45654C59.7653 5.45654 54.0653 10.9087 54.0653 17.6V45.1087V69.8913V97.4C54.0653 104.091 59.7653 109.543 66.4566 109.543C73.1478 109.543 78.8478 104.091 78.8478 97.4V69.8913H106.357C113.048 69.8913 118.5 64.1913 118.5 57.5C118.5 50.8087 113.048 45.1087 106.357 45.1087Z" fill="#E2E3E5"/>
<path d="M19.1218 69.8913H46.6306V97.4C46.6306 104.091 52.3306 109.543 59.0218 109.543C65.7131 109.543 71.4131 104.091 71.4131 97.4V69.8913V45.1087V17.6C71.4131 10.9087 65.7131 5.45654 59.0218 5.45654C52.3306 5.45654 46.6304 10.9087 46.6304 17.6V45.1087H19.1218C12.4306 45.1087 6.97839 50.8087 6.97839 57.5C6.97839 64.1913 12.4304 69.8913 19.1218 69.8913Z" fill="white"/>
<path d="M98.9219 45.1087H71.4131V17.6C71.4131 10.9087 65.7131 5.45654 59.0219 5.45654C52.3306 5.45654 46.6304 10.9087 46.6304 17.6V45.1087V69.8913V97.4C46.6304 104.091 52.3304 109.543 59.0216 109.543C65.7129 109.543 71.4129 104.091 71.4129 97.4V69.8913H98.9219C105.613 69.8913 111.065 64.1913 111.065 57.5C111.065 50.8087 105.613 45.1087 98.9219 45.1087Z" fill="#CCCCCC"/>
<path d="M91.4869 45.1087H63.9781V17.6C63.9781 10.9087 63.2347 5.45654 56.5434 5.45654C49.8522 5.45654 44.1522 10.9087 44.1522 17.6V45.1087H26.8043C20.1131 45.1087 14.6609 50.8087 14.6609 57.5C14.6609 64.1913 20.1131 69.8913 26.8043 69.8913H44.1522V97.4C44.1522 104.091 49.8522 109.543 56.5434 109.543C63.2347 109.543 63.9781 104.091 63.9781 97.4V69.8913H91.4869C98.1781 69.8913 103.63 64.1913 103.63 57.5C103.63 50.8087 98.1781 45.1087 91.4869 45.1087Z" fill="#E2E3E5"/>
<path d="M59.0218 112.022C50.8437 112.022 44.1522 105.331 44.1522 97.4V72.3696H19.1218C11.1913 72.3696 4.5 65.6781 4.5 57.5C4.5 49.3218 11.1913 42.6303 19.1218 42.6303H44.1522V17.6C44.1522 9.66964 50.8434 2.97815 59.0218 2.97815C67.2002 2.97815 73.8915 9.66942 73.8915 17.6V42.6303H98.9218C107.1 42.6303 113.544 49.3216 113.544 57.5C113.544 65.6784 106.852 72.3696 98.9218 72.3696H73.8913V97.4C73.8913 105.33 67.2 112.022 59.0218 112.022ZM19.1218 47.5869C13.9175 47.5869 9.45655 52.0478 9.45655 57.5C9.45655 62.9522 13.9175 67.4131 19.1218 67.4131H46.6306C48.1175 67.4131 49.1087 68.4044 49.1087 69.8913V97.4C49.1087 102.604 53.5697 107.065 59.0218 107.065C64.474 107.065 68.9349 102.604 68.9349 97.4V69.8913C68.9349 68.4044 69.9262 67.4131 71.4131 67.4131H98.9218C104.126 67.4131 108.587 62.9522 108.587 57.5C108.587 52.0478 104.126 47.5869 98.9218 47.5869H71.4131C69.9262 47.5869 68.9349 46.5956 68.9349 45.1087V17.6C68.9349 12.3956 64.474 7.9347 59.0218 7.9347C53.5697 7.9347 49.1087 12.3956 49.1087 17.6V45.1087C49.1087 46.5956 48.1175 47.5869 46.6306 47.5869H19.1218Z" fill="#00125D"/>
</g>
<defs>
<filter id="filter0_d_22_63" x="0.5" y="0.5" width="122" height="122" filterUnits="userSpaceOnUse" color-interpolation-filters="sRGB">
<feFlood flood-opacity="0" result="BackgroundImageFix"/>
<feColorMatrix in="SourceAlpha" type="matrix" values="0 0 0 0 0 0 0 0 0 0 0 0 0 0 0 0 0 0 127 0" result="hardAlpha"/>
<feOffset dy="4"/>
<feGaussianBlur stdDeviation="2"/>
<feComposite in2="hardAlpha" operator="out"/>
<feColorMatrix type="matrix" values="0 0 0 0 0 0 0 0 0 0 0 0 0 0 0 0 0 0 0.25 0"/>
<feBlend mode="normal" in2="BackgroundImageFix" result="effect1_dropShadow_22_63"/>
<feBlend mode="normal" in="SourceGraphic" in2="effect1_dropShadow_22_63" result="shape"/>
</filter>
<clipPath id="clip0_22_63">
<rect width="114" height="114" fill="white" transform="translate(4.5 0.5)"/>
</clipPath>
</defs>
</svg>
